<?xml version="1.0" encoding="UTF-8" standalone="no"?>
<!DOCTYPE svg PUBLIC "-//W3C//DTD SVG 1.1//EN"
 "http://www.w3.org/Graphics/SVG/1.1/DTD/svg11.dtd">
<!-- Generated by graphviz version 2.43.0 (0)
 -->
<!-- Title: RootCauseERD Pages: 1 -->
<svg width="768pt" height="1410pt"
 viewBox="0.00 0.00 768.00 1410.00" xmlns="http://www.w3.org/2000/svg" xmlns:xlink="http://www.w3.org/1999/xlink">
<g id="graph0" class="graph" transform="scale(1 1) rotate(0) translate(36 1374)">
<title>RootCauseERD</title>
<polygon fill="#1b1b1d" stroke="transparent" points="-36,36 -36,-1374 732,-1374 732,36 -36,36"/>
<!-- User -->
<g id="node1" class="node">
<title>User</title>
<polygon fill="#2a2a2d" stroke="transparent" points="581.5,-560 581.5,-749 675.5,-749 675.5,-560 581.5,-560"/>
<polygon fill="#c4501c" stroke="transparent" points="581.5,-715.5 581.5,-748.5 675.5,-748.5 675.5,-715.5 581.5,-715.5"/>
<polygon fill="none" stroke="#4a4a4e" points="581.5,-715.5 581.5,-748.5 675.5,-748.5 675.5,-715.5 581.5,-715.5"/>
<text text-anchor="start" x="614" y="-733.7" font-family="Helvetica,sans-Serif" font-weight="bold" font-size="11.00" fill="#ffffff">User</text>
<text text-anchor="start" x="588.5" y="-725.1" font-family="Helvetica,sans-Serif" font-size="8.00" fill="#f4d6c0">django.contrib.auth</text>
<polygon fill="none" stroke="#4a4a4e" points="581.5,-689.5 581.5,-715.5 675.5,-715.5 675.5,-689.5 581.5,-689.5"/>
<text text-anchor="start" x="588.5" y="-700.7" font-family="Helvetica,sans-Serif" font-size="11.00" fill="#f2a623">PK</text>
<text text-anchor="start" x="603.5" y="-700.7" font-family="Helvetica,sans-Serif" font-size="11.00"> </text>
<text text-anchor="start" x="607.5" y="-700.7" font-family="Helvetica,sans-Serif" font-size="11.00" fill="#f4f3ef">id</text>
<polygon fill="none" stroke="#4a4a4e" points="581.5,-663.5 581.5,-689.5 675.5,-689.5 675.5,-663.5 581.5,-663.5"/>
<text text-anchor="start" x="588.5" y="-673.7" font-family="Helvetica,sans-Serif" font-size="11.00" fill="#f4f3ef">username</text>
<polygon fill="none" stroke="#4a4a4e" points="581.5,-637.5 581.5,-663.5 675.5,-663.5 675.5,-637.5 581.5,-637.5"/>
<text text-anchor="start" x="588.5" y="-647.7" font-family="Helvetica,sans-Serif" font-size="11.00" fill="#f4f3ef">email</text>
<polygon fill="none" stroke="#4a4a4e" points="581.5,-611.5 581.5,-637.5 675.5,-637.5 675.5,-611.5 581.5,-611.5"/>
<text text-anchor="start" x="588.5" y="-621.7" font-family="Helvetica,sans-Serif" font-size="11.00" fill="#f4f3ef">password</text>
<polygon fill="none" stroke="#4a4a4e" points="581.5,-585.5 581.5,-611.5 675.5,-611.5 675.5,-585.5 581.5,-585.5"/>
<text text-anchor="start" x="588.5" y="-595.7" font-family="Helvetica,sans-Serif" font-size="11.00" fill="#f4f3ef">is_superuser</text>
<polygon fill="none" stroke="#4a4a4e" points="581.5,-559.5 581.5,-585.5 675.5,-585.5 675.5,-559.5 581.5,-559.5"/>
<text text-anchor="start" x="588.5" y="-569.7" font-family="Helvetica,sans-Serif" font-size="11.00" fill="#f4f3ef">is_active</text>
</g>
<!-- Profile -->
<g id="node2" class="node">
<title>Profile</title>
<polygon fill="#2a2a2d" stroke="transparent" points="294.5,-912 294.5,-1101 372.5,-1101 372.5,-912 294.5,-912"/>
<polygon fill="#3a6a3a" stroke="transparent" points="294.5,-1067.5 294.5,-1100.5 372.5,-1100.5 372.5,-1067.5 294.5,-1067.5"/>
<polygon fill="none" stroke="#4a4a4e" points="294.5,-1067.5 294.5,-1100.5 372.5,-1100.5 372.5,-1067.5 294.5,-1067.5"/>
<text text-anchor="start" x="313" y="-1085.7" font-family="Helvetica,sans-Serif" font-weight="bold" font-size="11.00" fill="#ffffff">Profile</text>
<text text-anchor="start" x="314.5" y="-1077.1" font-family="Helvetica,sans-Serif" font-size="8.00" fill="#d0e8d0">accounts</text>
<polygon fill="none" stroke="#4a4a4e" points="294.5,-1041.5 294.5,-1067.5 372.5,-1067.5 372.5,-1041.5 294.5,-1041.5"/>
<text text-anchor="start" x="301.5" y="-1052.7" font-family="Helvetica,sans-Serif" font-size="11.00" fill="#f2a623">PK</text>
<text text-anchor="start" x="316.5" y="-1052.7" font-family="Helvetica,sans-Serif" font-size="11.00"> </text>
<text text-anchor="start" x="320.5" y="-1052.7" font-family="Helvetica,sans-Serif" font-size="11.00" fill="#f4f3ef">id</text>
<polygon fill="none" stroke="#4a4a4e" points="294.5,-1015.5 294.5,-1041.5 372.5,-1041.5 372.5,-1015.5 294.5,-1015.5"/>
<text text-anchor="start" x="301.5" y="-1026.7" font-family="Helvetica,sans-Serif" font-size="11.00" fill="#7fb2f0">FK/1&#45;1</text>
<text text-anchor="start" x="336.5" y="-1026.7" font-family="Helvetica,sans-Serif" font-size="11.00"> </text>
<text text-anchor="start" x="340.5" y="-1026.7" font-family="Helvetica,sans-Serif" font-size="11.00" fill="#f4f3ef">user</text>
<polygon fill="none" stroke="#4a4a4e" points="294.5,-989.5 294.5,-1015.5 372.5,-1015.5 372.5,-989.5 294.5,-989.5"/>
<text text-anchor="start" x="301.5" y="-999.7" font-family="Helvetica,sans-Serif" font-size="11.00" fill="#f4f3ef">role</text>
<polygon fill="none" stroke="#4a4a4e" points="294.5,-963.5 294.5,-989.5 372.5,-989.5 372.5,-963.5 294.5,-963.5"/>
<text text-anchor="start" x="301.5" y="-973.7" font-family="Helvetica,sans-Serif" font-size="11.00" fill="#f4f3ef">coins</text>
<polygon fill="none" stroke="#4a4a4e" points="294.5,-937.5 294.5,-963.5 372.5,-963.5 372.5,-937.5 294.5,-937.5"/>
<text text-anchor="start" x="301.5" y="-947.7" font-family="Helvetica,sans-Serif" font-size="11.00" fill="#f4f3ef">bio</text>
<polygon fill="none" stroke="#4a4a4e" points="294.5,-911.5 294.5,-937.5 372.5,-937.5 372.5,-911.5 294.5,-911.5"/>
<text text-anchor="start" x="301.5" y="-921.7" font-family="Helvetica,sans-Serif" font-size="11.00" fill="#f4f3ef">avatar</text>
</g>
<!-- Profile&#45;&gt;User -->
<g id="edge1" class="edge">
<title>Profile&#45;&gt;User</title>
<path fill="none" stroke="#7fb2f0" d="M380.6,-951.11C432.9,-888.29 518.08,-785.95 573.46,-719.42"/>
<text text-anchor="middle" x="482.5" y="-875.3" font-family="Helvetica,sans-Serif" font-size="9.00" fill="#f2a623">1&#45;to&#45;1</text>
</g>
<!-- AuthorApplication -->
<g id="node3" class="node">
<title>AuthorApplication</title>
<polygon fill="#2a2a2d" stroke="transparent" points="271,-705 271,-868 396,-868 396,-705 271,-705"/>
<polygon fill="#3a6a3a" stroke="transparent" points="271.5,-834.5 271.5,-867.5 396.5,-867.5 396.5,-834.5 271.5,-834.5"/>
<polygon fill="none" stroke="#4a4a4e" points="271.5,-834.5 271.5,-867.5 396.5,-867.5 396.5,-834.5 271.5,-834.5"/>
<text text-anchor="start" x="278.5" y="-852.7" font-family="Helvetica,sans-Serif" font-weight="bold" font-size="11.00" fill="#ffffff">AuthorApplication</text>
<text text-anchor="start" x="315" y="-844.1" font-family="Helvetica,sans-Serif" font-size="8.00" fill="#d0e8d0">accounts</text>
<polygon fill="none" stroke="#4a4a4e" points="271.5,-808.5 271.5,-834.5 396.5,-834.5 396.5,-808.5 271.5,-808.5"/>
<text text-anchor="start" x="278.5" y="-819.7" font-family="Helvetica,sans-Serif" font-size="11.00" fill="#f2a623">PK</text>
<text text-anchor="start" x="293.5" y="-819.7" font-family="Helvetica,sans-Serif" font-size="11.00"> </text>
<text text-anchor="start" x="297.5" y="-819.7" font-family="Helvetica,sans-Serif" font-size="11.00" fill="#f4f3ef">id</text>
<polygon fill="none" stroke="#4a4a4e" points="271.5,-782.5 271.5,-808.5 396.5,-808.5 396.5,-782.5 271.5,-782.5"/>
<text text-anchor="start" x="278.5" y="-793.7" font-family="Helvetica,sans-Serif" font-size="11.00" fill="#7fb2f0">FK</text>
<text text-anchor="start" x="292.5" y="-793.7" font-family="Helvetica,sans-Serif" font-size="11.00"> </text>
<text text-anchor="start" x="296.5" y="-793.7" font-family="Helvetica,sans-Serif" font-size="11.00" fill="#f4f3ef">user</text>
<polygon fill="none" stroke="#4a4a4e" points="271.5,-756.5 271.5,-782.5 396.5,-782.5 396.5,-756.5 271.5,-756.5"/>
<text text-anchor="start" x="278.5" y="-766.7" font-family="Helvetica,sans-Serif" font-size="11.00" fill="#f4f3ef">sample_text</text>
<polygon fill="none" stroke="#4a4a4e" points="271.5,-730.5 271.5,-756.5 396.5,-756.5 396.5,-730.5 271.5,-730.5"/>
<text text-anchor="start" x="278.5" y="-740.7" font-family="Helvetica,sans-Serif" font-size="11.00" fill="#f4f3ef">status</text>
<polygon fill="none" stroke="#4a4a4e" points="271.5,-704.5 271.5,-730.5 396.5,-730.5 396.5,-704.5 271.5,-704.5"/>
<text text-anchor="start" x="278.5" y="-714.7" font-family="Helvetica,sans-Serif" font-size="11.00" fill="#f4f3ef">submitted_at</text>
</g>
<!-- AuthorApplication&#45;&gt;User -->
<g id="edge2" class="edge">
<title>AuthorApplication&#45;&gt;User</title>
<path fill="none" stroke="#9c9a96" d="M404.31,-755.05C453.47,-732.9 518.69,-703.52 565.92,-682.24"/>
<polygon fill="#9c9a96" stroke="#9c9a96" points="567.19,-684.74 573.34,-678.9 564.89,-679.63 567.19,-684.74"/>
<text text-anchor="middle" x="482.5" y="-739.3" font-family="Helvetica,sans-Serif" font-size="9.00" fill="#f2a623">N&#45;to&#45;1</text>
</g>
<!-- Category -->
<g id="node4" class="node">
<title>Category</title>
<polygon fill="#2a2a2d" stroke="transparent" points="578,-307 578,-418 679,-418 679,-307 578,-307"/>
<polygon fill="#8a5a1a" stroke="transparent" points="578.5,-384.5 578.5,-417.5 679.5,-417.5 679.5,-384.5 578.5,-384.5"/>
<polygon fill="none" stroke="#4a4a4e" points="578.5,-384.5 578.5,-417.5 679.5,-417.5 679.5,-384.5 578.5,-384.5"/>
<text text-anchor="start" x="600.5" y="-402.7" font-family="Helvetica,sans-Serif" font-weight="bold" font-size="11.00" fill="#ffffff">Category</text>
<text text-anchor="start" x="613" y="-394.1" font-family="Helvetica,sans-Serif" font-size="8.00" fill="#f0dcc0">content</text>
<polygon fill="none" stroke="#4a4a4e" points="578.5,-358.5 578.5,-384.5 679.5,-384.5 679.5,-358.5 578.5,-358.5"/>
<text text-anchor="start" x="585.5" y="-369.7" font-family="Helvetica,sans-Serif" font-size="11.00" fill="#f2a623">PK</text>
<text text-anchor="start" x="600.5" y="-369.7" font-family="Helvetica,sans-Serif" font-size="11.00"> </text>
<text text-anchor="start" x="604.5" y="-369.7" font-family="Helvetica,sans-Serif" font-size="11.00" fill="#f4f3ef">id</text>
<polygon fill="none" stroke="#4a4a4e" points="578.5,-332.5 578.5,-358.5 679.5,-358.5 679.5,-332.5 578.5,-332.5"/>
<text text-anchor="start" x="585.5" y="-342.7" font-family="Helvetica,sans-Serif" font-size="11.00" fill="#f4f3ef">name</text>
<polygon fill="none" stroke="#4a4a4e" points="578.5,-306.5 578.5,-332.5 679.5,-332.5 679.5,-306.5 578.5,-306.5"/>
<text text-anchor="start" x="585.5" y="-317.7" font-family="Helvetica,sans-Serif" font-size="11.00" fill="#7fb2f0">FK (self)</text>
<text text-anchor="start" x="631.5" y="-317.7" font-family="Helvetica,sans-Serif" font-size="11.00"> </text>
<text text-anchor="start" x="635.5" y="-317.7" font-family="Helvetica,sans-Serif" font-size="11.00" fill="#f4f3ef">parent</text>
</g>
<!-- Category&#45;&gt;Category -->
<g id="edge5" class="edge">
<title>Category&#45;&gt;Category</title>
<path fill="none" stroke="#9c9a96" d="M601.12,-422.19C601.12,-442.08 610.25,-458 628.5,-458 644.18,-458 653.13,-446.25 655.33,-430.31"/>
<polygon fill="#9c9a96" stroke="#9c9a96" points="658.14,-430.36 655.88,-422.19 652.55,-429.98 658.14,-430.36"/>
<text text-anchor="middle" x="628.5" y="-460.8" font-family="Helvetica,sans-Serif" font-size="9.00" fill="#f2a623">parent (self)</text>
</g>
<!-- WriteUp -->
<g id="node5" class="node">
<title>WriteUp</title>
<polygon fill="#2a2a2d" stroke="transparent" points="293,-229 293,-496 374,-496 374,-229 293,-229"/>
<polygon fill="#8a5a1a" stroke="transparent" points="293.5,-462.5 293.5,-495.5 374.5,-495.5 374.5,-462.5 293.5,-462.5"/>
<polygon fill="none" stroke="#4a4a4e" points="293.5,-462.5 293.5,-495.5 374.5,-495.5 374.5,-462.5 293.5,-462.5"/>
<text text-anchor="start" x="308.5" y="-480.7" font-family="Helvetica,sans-Serif" font-weight="bold" font-size="11.00" fill="#ffffff">WriteUp</text>
<text text-anchor="start" x="318" y="-472.1" font-family="Helvetica,sans-Serif" font-size="8.00" fill="#f0dcc0">content</text>
<polygon fill="none" stroke="#4a4a4e" points="293.5,-436.5 293.5,-462.5 374.5,-462.5 374.5,-436.5 293.5,-436.5"/>
<text text-anchor="start" x="300.5" y="-447.7" font-family="Helvetica,sans-Serif" font-size="11.00" fill="#f2a623">PK</text>
<text text-anchor="start" x="315.5" y="-447.7" font-family="Helvetica,sans-Serif" font-size="11.00"> </text>
<text text-anchor="start" x="319.5" y="-447.7" font-family="Helvetica,sans-Serif" font-size="11.00" fill="#f4f3ef">id</text>
<polygon fill="none" stroke="#4a4a4e" points="293.5,-410.5 293.5,-436.5 374.5,-436.5 374.5,-410.5 293.5,-410.5"/>
<text text-anchor="start" x="300.5" y="-420.7" font-family="Helvetica,sans-Serif" font-size="11.00" fill="#f4f3ef">title</text>
<polygon fill="none" stroke="#4a4a4e" points="293.5,-384.5 293.5,-410.5 374.5,-410.5 374.5,-384.5 293.5,-384.5"/>
<text text-anchor="start" x="300.5" y="-394.7" font-family="Helvetica,sans-Serif" font-size="11.00" fill="#f4f3ef">body</text>
<polygon fill="none" stroke="#4a4a4e" points="293.5,-358.5 293.5,-384.5 374.5,-384.5 374.5,-358.5 293.5,-358.5"/>
<text text-anchor="start" x="300.5" y="-369.7" font-family="Helvetica,sans-Serif" font-size="11.00" fill="#7fb2f0">FK</text>
<text text-anchor="start" x="314.5" y="-369.7" font-family="Helvetica,sans-Serif" font-size="11.00"> </text>
<text text-anchor="start" x="318.5" y="-369.7" font-family="Helvetica,sans-Serif" font-size="11.00" fill="#f4f3ef">category</text>
<polygon fill="none" stroke="#4a4a4e" points="293.5,-332.5 293.5,-358.5 374.5,-358.5 374.5,-332.5 293.5,-332.5"/>
<text text-anchor="start" x="300.5" y="-343.7" font-family="Helvetica,sans-Serif" font-size="11.00" fill="#7fb2f0">FK</text>
<text text-anchor="start" x="314.5" y="-343.7" font-family="Helvetica,sans-Serif" font-size="11.00"> </text>
<text text-anchor="start" x="318.5" y="-343.7" font-family="Helvetica,sans-Serif" font-size="11.00" fill="#f4f3ef">author</text>
<polygon fill="none" stroke="#4a4a4e" points="293.5,-306.5 293.5,-332.5 374.5,-332.5 374.5,-306.5 293.5,-306.5"/>
<text text-anchor="start" x="300.5" y="-316.7" font-family="Helvetica,sans-Serif" font-size="11.00" fill="#f4f3ef">image</text>
<polygon fill="none" stroke="#4a4a4e" points="293.5,-280.5 293.5,-306.5 374.5,-306.5 374.5,-280.5 293.5,-280.5"/>
<text text-anchor="start" x="300.5" y="-290.7" font-family="Helvetica,sans-Serif" font-size="11.00" fill="#f4f3ef">is_premium</text>
<polygon fill="none" stroke="#4a4a4e" points="293.5,-254.5 293.5,-280.5 374.5,-280.5 374.5,-254.5 293.5,-254.5"/>
<text text-anchor="start" x="300.5" y="-264.7" font-family="Helvetica,sans-Serif" font-size="11.00" fill="#f4f3ef">coin_cost</text>
<polygon fill="none" stroke="#4a4a4e" points="293.5,-228.5 293.5,-254.5 374.5,-254.5 374.5,-228.5 293.5,-228.5"/>
<text text-anchor="start" x="300.5" y="-238.7" font-family="Helvetica,sans-Serif" font-size="11.00" fill="#f4f3ef">created_at</text>
</g>
<!-- WriteUp&#45;&gt;User -->
<g id="edge3" class="edge">
<title>WriteUp&#45;&gt;User</title>
<path fill="none" stroke="#9c9a96" d="M382.09,-404.01C420.52,-438.09 475.5,-488.12 521,-534.5 536.64,-550.44 552.92,-568.16 567.92,-584.99"/>
<polygon fill="#9c9a96" stroke="#9c9a96" points="565.97,-587.02 573.38,-591.14 570.16,-583.3 565.97,-587.02"/>
<text text-anchor="middle" x="482.5" y="-537.3" font-family="Helvetica,sans-Serif" font-size="9.00" fill="#f2a623">author &#160;N&#45;to&#45;1</text>
</g>
<!-- WriteUp&#45;&gt;Category -->
<g id="edge4" class="edge">
<title>WriteUp&#45;&gt;Category</title>
<path fill="none" stroke="#9c9a96" d="M382.23,-362.5C431.04,-362.5 507.25,-362.5 561.76,-362.5"/>
<polygon fill="#9c9a96" stroke="#9c9a96" points="561.98,-365.3 569.98,-362.5 561.98,-359.7 561.98,-365.3"/>
<text text-anchor="middle" x="482.5" y="-365.3" font-family="Helvetica,sans-Serif" font-size="9.00" fill="#f2a623">N&#45;to&#45;1</text>
</g>
<!-- Rating -->
<g id="node6" class="node">
<title>Rating</title>
<polygon fill="#2a2a2d" stroke="transparent" points="8,-402 8,-539 146,-539 146,-402 8,-402"/>
<polygon fill="#8a5a1a" stroke="transparent" points="8,-505.5 8,-538.5 146,-538.5 146,-505.5 8,-505.5"/>
<polygon fill="none" stroke="#4a4a4e" points="8,-505.5 8,-538.5 146,-538.5 146,-505.5 8,-505.5"/>
<text text-anchor="start" x="57" y="-523.7" font-family="Helvetica,sans-Serif" font-weight="bold" font-size="11.00" fill="#ffffff">Rating</text>
<text text-anchor="start" x="15" y="-515.1" font-family="Helvetica,sans-Serif" font-size="8.00" fill="#f0dcc0">content · unique(writeup,user)</text>
<polygon fill="none" stroke="#4a4a4e" points="8,-479.5 8,-505.5 146,-505.5 146,-479.5 8,-479.5"/>
<text text-anchor="start" x="15" y="-490.7" font-family="Helvetica,sans-Serif" font-size="11.00" fill="#f2a623">PK</text>
<text text-anchor="start" x="30" y="-490.7" font-family="Helvetica,sans-Serif" font-size="11.00"> </text>
<text text-anchor="start" x="34" y="-490.7" font-family="Helvetica,sans-Serif" font-size="11.00" fill="#f4f3ef">id</text>
<polygon fill="none" stroke="#4a4a4e" points="8,-453.5 8,-479.5 146,-479.5 146,-453.5 8,-453.5"/>
<text text-anchor="start" x="15" y="-464.7" font-family="Helvetica,sans-Serif" font-size="11.00" fill="#7fb2f0">FK</text>
<text text-anchor="start" x="29" y="-464.7" font-family="Helvetica,sans-Serif" font-size="11.00"> </text>
<text text-anchor="start" x="33" y="-464.7" font-family="Helvetica,sans-Serif" font-size="11.00" fill="#f4f3ef">writeup</text>
<polygon fill="none" stroke="#4a4a4e" points="8,-427.5 8,-453.5 146,-453.5 146,-427.5 8,-427.5"/>
<text text-anchor="start" x="15" y="-438.7" font-family="Helvetica,sans-Serif" font-size="11.00" fill="#7fb2f0">FK</text>
<text text-anchor="start" x="29" y="-438.7" font-family="Helvetica,sans-Serif" font-size="11.00"> </text>
<text text-anchor="start" x="33" y="-438.7" font-family="Helvetica,sans-Serif" font-size="11.00" fill="#f4f3ef">user</text>
<polygon fill="none" stroke="#4a4a4e" points="8,-401.5 8,-427.5 146,-427.5 146,-401.5 8,-401.5"/>
<text text-anchor="start" x="15" y="-411.7" font-family="Helvetica,sans-Serif" font-size="11.00" fill="#f4f3ef">score</text>
</g>
<!-- Rating&#45;&gt;User -->
<g id="edge7" class="edge">
<title>Rating&#45;&gt;User</title>
<path fill="none" stroke="#9c9a96" d="M154.12,-495.99C263.82,-532.72 464.28,-599.85 565.51,-633.74"/>
<polygon fill="#9c9a96" stroke="#9c9a96" points="564.74,-636.44 573.21,-636.32 566.52,-631.13 564.74,-636.44"/>
<text text-anchor="middle" x="333.5" y="-581.3" font-family="Helvetica,sans-Serif" font-size="9.00" fill="#f2a623">N&#45;to&#45;1</text>
</g>
<!-- Rating&#45;&gt;WriteUp -->
<g id="edge6" class="edge">
<title>Rating&#45;&gt;WriteUp</title>
<path fill="none" stroke="#9c9a96" d="M154.01,-438.24C193.67,-421.41 241.29,-401.2 277.37,-385.89"/>
<polygon fill="#9c9a96" stroke="#9c9a96" points="278.62,-388.41 284.89,-382.7 276.43,-383.25 278.62,-388.41"/>
<text text-anchor="middle" x="208.5" y="-423.3" font-family="Helvetica,sans-Serif" font-size="9.00" fill="#f2a623">N&#45;to&#45;1</text>
</g>
<!-- ReadLog -->
<g id="node7" class="node">
<title>ReadLog</title>
<polygon fill="#2a2a2d" stroke="transparent" points="8,-585 8,-722 146,-722 146,-585 8,-585"/>
<polygon fill="#8a5a1a" stroke="transparent" points="8,-688.5 8,-721.5 146,-721.5 146,-688.5 8,-688.5"/>
<polygon fill="none" stroke="#4a4a4e" points="8,-688.5 8,-721.5 146,-721.5 146,-688.5 8,-688.5"/>
<text text-anchor="start" x="50.5" y="-706.7" font-family="Helvetica,sans-Serif" font-weight="bold" font-size="11.00" fill="#ffffff">ReadLog</text>
<text text-anchor="start" x="15" y="-698.1" font-family="Helvetica,sans-Serif" font-size="8.00" fill="#f0dcc0">content · unique(user,writeup)</text>
<polygon fill="none" stroke="#4a4a4e" points="8,-662.5 8,-688.5 146,-688.5 146,-662.5 8,-662.5"/>
<text text-anchor="start" x="15" y="-673.7" font-family="Helvetica,sans-Serif" font-size="11.00" fill="#f2a623">PK</text>
<text text-anchor="start" x="30" y="-673.7" font-family="Helvetica,sans-Serif" font-size="11.00"> </text>
<text text-anchor="start" x="34" y="-673.7" font-family="Helvetica,sans-Serif" font-size="11.00" fill="#f4f3ef">id</text>
<polygon fill="none" stroke="#4a4a4e" points="8,-636.5 8,-662.5 146,-662.5 146,-636.5 8,-636.5"/>
<text text-anchor="start" x="15" y="-647.7" font-family="Helvetica,sans-Serif" font-size="11.00" fill="#7fb2f0">FK</text>
<text text-anchor="start" x="29" y="-647.7" font-family="Helvetica,sans-Serif" font-size="11.00"> </text>
<text text-anchor="start" x="33" y="-647.7" font-family="Helvetica,sans-Serif" font-size="11.00" fill="#f4f3ef">user</text>
<polygon fill="none" stroke="#4a4a4e" points="8,-610.5 8,-636.5 146,-636.5 146,-610.5 8,-610.5"/>
<text text-anchor="start" x="15" y="-621.7" font-family="Helvetica,sans-Serif" font-size="11.00" fill="#7fb2f0">FK</text>
<text text-anchor="start" x="29" y="-621.7" font-family="Helvetica,sans-Serif" font-size="11.00"> </text>
<text text-anchor="start" x="33" y="-621.7" font-family="Helvetica,sans-Serif" font-size="11.00" fill="#f4f3ef">writeup</text>
<polygon fill="none" stroke="#4a4a4e" points="8,-584.5 8,-610.5 146,-610.5 146,-584.5 8,-584.5"/>
<text text-anchor="start" x="15" y="-594.7" font-family="Helvetica,sans-Serif" font-size="11.00" fill="#f4f3ef">timestamp</text>
</g>
<!-- ReadLog&#45;&gt;User -->
<g id="edge9" class="edge">
<title>ReadLog&#45;&gt;User</title>
<path fill="none" stroke="#9c9a96" d="M154.12,-653.64C263.71,-653.84 463.88,-654.2 565.2,-654.39"/>
<polygon fill="#9c9a96" stroke="#9c9a96" points="565.21,-657.19 573.21,-654.4 565.22,-651.59 565.21,-657.19"/>
<text text-anchor="middle" x="333.5" y="-657.3" font-family="Helvetica,sans-Serif" font-size="9.00" fill="#f2a623">N&#45;to&#45;1</text>
</g>
<!-- ReadLog&#45;&gt;WriteUp -->
<g id="edge8" class="edge">
<title>ReadLog&#45;&gt;WriteUp</title>
<path fill="none" stroke="#9c9a96" d="M141.56,-580.82C184.12,-532.16 239.47,-468.87 279.61,-422.97"/>
<polygon fill="#9c9a96" stroke="#9c9a96" points="281.77,-424.76 284.93,-416.9 277.55,-421.07 281.77,-424.76"/>
<text text-anchor="middle" x="208.5" y="-520.3" font-family="Helvetica,sans-Serif" font-size="9.00" fill="#f2a623">N&#45;to&#45;1</text>
</g>
<!-- Unlock -->
<g id="node8" class="node">
<title>Unlock</title>
<polygon fill="#2a2a2d" stroke="transparent" points="8,-218 8,-355 146,-355 146,-218 8,-218"/>
<polygon fill="#8a5a1a" stroke="transparent" points="8,-321.5 8,-354.5 146,-354.5 146,-321.5 8,-321.5"/>
<polygon fill="none" stroke="#4a4a4e" points="8,-321.5 8,-354.5 146,-354.5 146,-321.5 8,-321.5"/>
<text text-anchor="start" x="55.5" y="-339.7" font-family="Helvetica,sans-Serif" font-weight="bold" font-size="11.00" fill="#ffffff">Unlock</text>
<text text-anchor="start" x="15" y="-331.1" font-family="Helvetica,sans-Serif" font-size="8.00" fill="#f0dcc0">content · unique(user,writeup)</text>
<polygon fill="none" stroke="#4a4a4e" points="8,-295.5 8,-321.5 146,-321.5 146,-295.5 8,-295.5"/>
<text text-anchor="start" x="15" y="-306.7" font-family="Helvetica,sans-Serif" font-size="11.00" fill="#f2a623">PK</text>
<text text-anchor="start" x="30" y="-306.7" font-family="Helvetica,sans-Serif" font-size="11.00"> </text>
<text text-anchor="start" x="34" y="-306.7" font-family="Helvetica,sans-Serif" font-size="11.00" fill="#f4f3ef">id</text>
<polygon fill="none" stroke="#4a4a4e" points="8,-269.5 8,-295.5 146,-295.5 146,-269.5 8,-269.5"/>
<text text-anchor="start" x="15" y="-280.7" font-family="Helvetica,sans-Serif" font-size="11.00" fill="#7fb2f0">FK</text>
<text text-anchor="start" x="29" y="-280.7" font-family="Helvetica,sans-Serif" font-size="11.00"> </text>
<text text-anchor="start" x="33" y="-280.7" font-family="Helvetica,sans-Serif" font-size="11.00" fill="#f4f3ef">user</text>
<polygon fill="none" stroke="#4a4a4e" points="8,-243.5 8,-269.5 146,-269.5 146,-243.5 8,-243.5"/>
<text text-anchor="start" x="15" y="-254.7" font-family="Helvetica,sans-Serif" font-size="11.00" fill="#7fb2f0">FK</text>
<text text-anchor="start" x="29" y="-254.7" font-family="Helvetica,sans-Serif" font-size="11.00"> </text>
<text text-anchor="start" x="33" y="-254.7" font-family="Helvetica,sans-Serif" font-size="11.00" fill="#f4f3ef">writeup</text>
<polygon fill="none" stroke="#4a4a4e" points="8,-217.5 8,-243.5 146,-243.5 146,-217.5 8,-217.5"/>
<text text-anchor="start" x="15" y="-227.7" font-family="Helvetica,sans-Serif" font-size="11.00" fill="#f4f3ef">timestamp</text>
</g>
<!-- Unlock&#45;&gt;User -->
<g id="edge11" class="edge">
<title>Unlock&#45;&gt;User</title>
<path fill="none" stroke="#9c9a96" d="M154.2,-235.33C222.29,-196.48 323.45,-156.07 404,-196.5 528.41,-258.94 514.64,-336.25 561,-467.5 570.19,-493.52 580.14,-521.57 589.48,-547.82"/>
<polygon fill="#9c9a96" stroke="#9c9a96" points="586.9,-548.94 592.22,-555.54 592.18,-547.06 586.9,-548.94"/>
<text text-anchor="middle" x="333.5" y="-199.3" font-family="Helvetica,sans-Serif" font-size="9.00" fill="#f2a623">N&#45;to&#45;1</text>
</g>
<!-- Unlock&#45;&gt;WriteUp -->
<g id="edge10" class="edge">
<title>Unlock&#45;&gt;WriteUp</title>
<path fill="none" stroke="#9c9a96" d="M154.01,-309.2C193.5,-320.99 240.9,-335.14 276.92,-345.9"/>
<polygon fill="#9c9a96" stroke="#9c9a96" points="276.42,-348.68 284.89,-348.28 278.02,-343.31 276.42,-348.68"/>
<text text-anchor="middle" x="208.5" y="-332.3" font-family="Helvetica,sans-Serif" font-size="9.00" fill="#f2a623">N&#45;to&#45;1</text>
</g>
<!-- Comment -->
<g id="node9" class="node">
<title>Comment</title>
<polygon fill="#2a2a2d" stroke="transparent" points="40,-4 40,-167 114,-167 114,-4 40,-4"/>
<polygon fill="#8a5a1a" stroke="transparent" points="40,-133.5 40,-166.5 114,-166.5 114,-133.5 40,-133.5"/>
<polygon fill="none" stroke="#4a4a4e" points="40,-133.5 40,-166.5 114,-166.5 114,-133.5 40,-133.5"/>
<text text-anchor="start" x="47.5" y="-151.7" font-family="Helvetica,sans-Serif" font-weight="bold" font-size="11.00" fill="#ffffff">Comment</text>
<text text-anchor="start" x="61" y="-143.1" font-family="Helvetica,sans-Serif" font-size="8.00" fill="#f0dcc0">content</text>
<polygon fill="none" stroke="#4a4a4e" points="40,-107.5 40,-133.5 114,-133.5 114,-107.5 40,-107.5"/>
<text text-anchor="start" x="47" y="-118.7" font-family="Helvetica,sans-Serif" font-size="11.00" fill="#f2a623">PK</text>
<text text-anchor="start" x="62" y="-118.7" font-family="Helvetica,sans-Serif" font-size="11.00"> </text>
<text text-anchor="start" x="66" y="-118.7" font-family="Helvetica,sans-Serif" font-size="11.00" fill="#f4f3ef">id</text>
<polygon fill="none" stroke="#4a4a4e" points="40,-81.5 40,-107.5 114,-107.5 114,-81.5 40,-81.5"/>
<text text-anchor="start" x="47" y="-92.7" font-family="Helvetica,sans-Serif" font-size="11.00" fill="#7fb2f0">FK</text>
<text text-anchor="start" x="61" y="-92.7" font-family="Helvetica,sans-Serif" font-size="11.00"> </text>
<text text-anchor="start" x="65" y="-92.7" font-family="Helvetica,sans-Serif" font-size="11.00" fill="#f4f3ef">writeup</text>
<polygon fill="none" stroke="#4a4a4e" points="40,-55.5 40,-81.5 114,-81.5 114,-55.5 40,-55.5"/>
<text text-anchor="start" x="47" y="-66.7" font-family="Helvetica,sans-Serif" font-size="11.00" fill="#7fb2f0">FK</text>
<text text-anchor="start" x="61" y="-66.7" font-family="Helvetica,sans-Serif" font-size="11.00"> </text>
<text text-anchor="start" x="65" y="-66.7" font-family="Helvetica,sans-Serif" font-size="11.00" fill="#f4f3ef">user</text>
<polygon fill="none" stroke="#4a4a4e" points="40,-29.5 40,-55.5 114,-55.5 114,-29.5 40,-29.5"/>
<text text-anchor="start" x="47" y="-39.7" font-family="Helvetica,sans-Serif" font-size="11.00" fill="#f4f3ef">body</text>
<polygon fill="none" stroke="#4a4a4e" points="40,-3.5 40,-29.5 114,-29.5 114,-3.5 40,-3.5"/>
<text text-anchor="start" x="47" y="-13.7" font-family="Helvetica,sans-Serif" font-size="11.00" fill="#f4f3ef">created_at</text>
</g>
<!-- Comment&#45;&gt;User -->
<g id="edge13" class="edge">
<title>Comment&#45;&gt;User</title>
<path fill="none" stroke="#9c9a96" d="M122.1,-82.83C213.88,-80 424.88,-88.21 521,-213.5 590.56,-304.17 532.84,-356.74 561,-467.5 567.72,-493.94 576.65,-521.92 585.77,-547.95"/>
<polygon fill="#9c9a96" stroke="#9c9a96" points="583.17,-548.99 588.48,-555.6 588.45,-547.12 583.17,-548.99"/>
<text text-anchor="middle" x="333.5" y="-129.3" font-family="Helvetica,sans-Serif" font-size="9.00" fill="#f2a623">N&#45;to&#45;1</text>
</g>
<!-- Comment&#45;&gt;WriteUp -->
<g id="edge12" class="edge">
<title>Comment&#45;&gt;WriteUp</title>
<path fill="none" stroke="#9c9a96" d="M122.04,-133.43C165.65,-180.9 232.48,-253.64 279.1,-304.37"/>
<polygon fill="#9c9a96" stroke="#9c9a96" points="277.2,-306.45 284.68,-310.45 281.33,-302.66 277.2,-306.45"/>
<text text-anchor="middle" x="208.5" y="-244.3" font-family="Helvetica,sans-Serif" font-size="9.00" fill="#f2a623">N&#45;to&#45;1</text>
</g>
<!-- ContactMessage -->
<g id="node10" class="node">
<title>ContactMessage</title>
<polygon fill="#2a2a2d" stroke="transparent" points="18.5,-766 18.5,-929 135.5,-929 135.5,-766 18.5,-766"/>
<polygon fill="#8a5a1a" stroke="transparent" points="19,-895.5 19,-928.5 136,-928.5 136,-895.5 19,-895.5"/>
<polygon fill="none" stroke="#4a4a4e" points="19,-895.5 19,-928.5 136,-928.5 136,-895.5 19,-895.5"/>
<text text-anchor="start" x="26" y="-913.7" font-family="Helvetica,sans-Serif" font-weight="bold" font-size="11.00" fill="#ffffff">ContactMessage</text>
<text text-anchor="start" x="35" y="-905.1" font-family="Helvetica,sans-Serif" font-size="8.00" fill="#f0dcc0">content · standalone</text>
<polygon fill="none" stroke="#4a4a4e" points="19,-869.5 19,-895.5 136,-895.5 136,-869.5 19,-869.5"/>
<text text-anchor="start" x="26" y="-880.7" font-family="Helvetica,sans-Serif" font-size="11.00" fill="#f2a623">PK</text>
<text text-anchor="start" x="41" y="-880.7" font-family="Helvetica,sans-Serif" font-size="11.00"> </text>
<text text-anchor="start" x="45" y="-880.7" font-family="Helvetica,sans-Serif" font-size="11.00" fill="#f4f3ef">id</text>
<polygon fill="none" stroke="#4a4a4e" points="19,-843.5 19,-869.5 136,-869.5 136,-843.5 19,-843.5"/>
<text text-anchor="start" x="26" y="-853.7" font-family="Helvetica,sans-Serif" font-size="11.00" fill="#f4f3ef">name</text>
<polygon fill="none" stroke="#4a4a4e" points="19,-817.5 19,-843.5 136,-843.5 136,-817.5 19,-817.5"/>
<text text-anchor="start" x="26" y="-827.7" font-family="Helvetica,sans-Serif" font-size="11.00" fill="#f4f3ef">email</text>
<polygon fill="none" stroke="#4a4a4e" points="19,-791.5 19,-817.5 136,-817.5 136,-791.5 19,-791.5"/>
<text text-anchor="start" x="26" y="-801.7" font-family="Helvetica,sans-Serif" font-size="11.00" fill="#f4f3ef">subject</text>
<polygon fill="none" stroke="#4a4a4e" points="19,-765.5 19,-791.5 136,-791.5 136,-765.5 19,-765.5"/>
<text text-anchor="start" x="26" y="-775.7" font-family="Helvetica,sans-Serif" font-size="11.00" fill="#f4f3ef">message</text>
</g>
<!-- SubscriptionPlan -->
<g id="node11" class="node">
<title>SubscriptionPlan</title>
<polygon fill="#2a2a2d" stroke="transparent" points="569,-1171 569,-1308 688,-1308 688,-1171 569,-1171"/>
<polygon fill="#5a3a8a" stroke="transparent" points="569.5,-1274.5 569.5,-1307.5 688.5,-1307.5 688.5,-1274.5 569.5,-1274.5"/>
<polygon fill="none" stroke="#4a4a4e" points="569.5,-1274.5 569.5,-1307.5 688.5,-1307.5 688.5,-1274.5 569.5,-1274.5"/>
<text text-anchor="start" x="576.5" y="-1292.7" font-family="Helvetica,sans-Serif" font-weight="bold" font-size="11.00" fill="#ffffff">SubscriptionPlan</text>
<text text-anchor="start" x="616.5" y="-1284.1" font-family="Helvetica,sans-Serif" font-size="8.00" fill="#e0d0f0">billing</text>
<polygon fill="none" stroke="#4a4a4e" points="569.5,-1248.5 569.5,-1274.5 688.5,-1274.5 688.5,-1248.5 569.5,-1248.5"/>
<text text-anchor="start" x="576.5" y="-1259.7" font-family="Helvetica,sans-Serif" font-size="11.00" fill="#f2a623">PK</text>
<text text-anchor="start" x="591.5" y="-1259.7" font-family="Helvetica,sans-Serif" font-size="11.00"> </text>
<text text-anchor="start" x="595.5" y="-1259.7" font-family="Helvetica,sans-Serif" font-size="11.00" fill="#f4f3ef">id</text>
<polygon fill="none" stroke="#4a4a4e" points="569.5,-1222.5 569.5,-1248.5 688.5,-1248.5 688.5,-1222.5 569.5,-1222.5"/>
<text text-anchor="start" x="576.5" y="-1232.7" font-family="Helvetica,sans-Serif" font-size="11.00" fill="#f4f3ef">name</text>
<polygon fill="none" stroke="#4a4a4e" points="569.5,-1196.5 569.5,-1222.5 688.5,-1222.5 688.5,-1196.5 569.5,-1196.5"/>
<text text-anchor="start" x="576.5" y="-1206.7" font-family="Helvetica,sans-Serif" font-size="11.00" fill="#f4f3ef">duration_days</text>
<polygon fill="none" stroke="#4a4a4e" points="569.5,-1170.5 569.5,-1196.5 688.5,-1196.5 688.5,-1170.5 569.5,-1170.5"/>
<text text-anchor="start" x="576.5" y="-1180.7" font-family="Helvetica,sans-Serif" font-size="11.00" fill="#f4f3ef">price</text>
</g>
<!-- Subscription -->
<g id="node12" class="node">
<title>Subscription</title>
<polygon fill="#2a2a2d" stroke="transparent" points="287.5,-1145 287.5,-1334 379.5,-1334 379.5,-1145 287.5,-1145"/>
<polygon fill="#5a3a8a" stroke="transparent" points="287.5,-1300.5 287.5,-1333.5 379.5,-1333.5 379.5,-1300.5 287.5,-1300.5"/>
<polygon fill="none" stroke="#4a4a4e" points="287.5,-1300.5 287.5,-1333.5 379.5,-1333.5 379.5,-1300.5 287.5,-1300.5"/>
<text text-anchor="start" x="294.5" y="-1318.7" font-family="Helvetica,sans-Serif" font-weight="bold" font-size="11.00" fill="#ffffff">Subscription</text>
<text text-anchor="start" x="321" y="-1310.1" font-family="Helvetica,sans-Serif" font-size="8.00" fill="#e0d0f0">billing</text>
<polygon fill="none" stroke="#4a4a4e" points="287.5,-1274.5 287.5,-1300.5 379.5,-1300.5 379.5,-1274.5 287.5,-1274.5"/>
<text text-anchor="start" x="294.5" y="-1285.7" font-family="Helvetica,sans-Serif" font-size="11.00" fill="#f2a623">PK</text>
<text text-anchor="start" x="309.5" y="-1285.7" font-family="Helvetica,sans-Serif" font-size="11.00"> </text>
<text text-anchor="start" x="313.5" y="-1285.7" font-family="Helvetica,sans-Serif" font-size="11.00" fill="#f4f3ef">id</text>
<polygon fill="none" stroke="#4a4a4e" points="287.5,-1248.5 287.5,-1274.5 379.5,-1274.5 379.5,-1248.5 287.5,-1248.5"/>
<text text-anchor="start" x="294.5" y="-1259.7" font-family="Helvetica,sans-Serif" font-size="11.00" fill="#7fb2f0">FK</text>
<text text-anchor="start" x="308.5" y="-1259.7" font-family="Helvetica,sans-Serif" font-size="11.00"> </text>
<text text-anchor="start" x="312.5" y="-1259.7" font-family="Helvetica,sans-Serif" font-size="11.00" fill="#f4f3ef">user</text>
<polygon fill="none" stroke="#4a4a4e" points="287.5,-1222.5 287.5,-1248.5 379.5,-1248.5 379.5,-1222.5 287.5,-1222.5"/>
<text text-anchor="start" x="294.5" y="-1233.7" font-family="Helvetica,sans-Serif" font-size="11.00" fill="#7fb2f0">FK</text>
<text text-anchor="start" x="308.5" y="-1233.7" font-family="Helvetica,sans-Serif" font-size="11.00"> </text>
<text text-anchor="start" x="312.5" y="-1233.7" font-family="Helvetica,sans-Serif" font-size="11.00" fill="#f4f3ef">plan</text>
<polygon fill="none" stroke="#4a4a4e" points="287.5,-1196.5 287.5,-1222.5 379.5,-1222.5 379.5,-1196.5 287.5,-1196.5"/>
<text text-anchor="start" x="294.5" y="-1207.7" font-family="Helvetica,sans-Serif" font-size="11.00" fill="#7fb2f0">FK</text>
<text text-anchor="start" x="308.5" y="-1207.7" font-family="Helvetica,sans-Serif" font-size="11.00"> </text>
<text text-anchor="start" x="312.5" y="-1207.7" font-family="Helvetica,sans-Serif" font-size="11.00" fill="#f4f3ef">gifted_by</text>
<polygon fill="none" stroke="#4a4a4e" points="287.5,-1170.5 287.5,-1196.5 379.5,-1196.5 379.5,-1170.5 287.5,-1170.5"/>
<text text-anchor="start" x="294.5" y="-1180.7" font-family="Helvetica,sans-Serif" font-size="11.00" fill="#f4f3ef">started_at</text>
<polygon fill="none" stroke="#4a4a4e" points="287.5,-1144.5 287.5,-1170.5 379.5,-1170.5 379.5,-1144.5 287.5,-1144.5"/>
<text text-anchor="start" x="294.5" y="-1154.7" font-family="Helvetica,sans-Serif" font-size="11.00" fill="#f4f3ef">expires_at</text>
</g>
<!-- Subscription&#45;&gt;User -->
<g id="edge14" class="edge">
<title>Subscription&#45;&gt;User</title>
<path fill="none" stroke="#9c9a96" d="M387.56,-1152.49C393.21,-1142.76 398.79,-1132.96 404,-1123.5 471.01,-1001.84 538.27,-856.85 581.24,-760.61"/>
<polygon fill="#9c9a96" stroke="#9c9a96" points="583.84,-761.64 584.54,-753.19 578.73,-759.36 583.84,-761.64"/>
<text text-anchor="middle" x="482.5" y="-1038.3" font-family="Helvetica,sans-Serif" font-size="9.00" fill="#f2a623">user &#160;N&#45;to&#45;1</text>
</g>
<!-- Subscription&#45;&gt;User -->
<g id="edge16" class="edge">
<title>Subscription&#45;&gt;User</title>
<path fill="none" stroke="#9c9a96" stroke-dasharray="5,2" d="M387.59,-1200.04C429.74,-1165.97 487.07,-1113.11 521,-1054.5 573.76,-963.37 601.01,-845.52 614.67,-761.39"/>
<polygon fill="#9c9a96" stroke="#9c9a96" points="617.46,-761.7 615.95,-753.36 611.93,-760.82 617.46,-761.7"/>
<text text-anchor="middle" x="482.5" y="-1151.3" font-family="Helvetica,sans-Serif" font-size="9.00" fill="#f2a623">gifted_by &#160;N&#45;to&#45;1</text>
</g>
<!-- Subscription&#45;&gt;SubscriptionPlan -->
<g id="edge15" class="edge">
<title>Subscription&#45;&gt;SubscriptionPlan</title>
<path fill="none" stroke="#9c9a96" d="M387.56,-1239.5C433.74,-1239.5 501.18,-1239.5 552.8,-1239.5"/>
<polygon fill="#9c9a96" stroke="#9c9a96" points="552.95,-1242.3 560.95,-1239.5 552.95,-1236.7 552.95,-1242.3"/>
<text text-anchor="middle" x="482.5" y="-1242.3" font-family="Helvetica,sans-Serif" font-size="9.00" fill="#f2a623">N&#45;to&#45;1</text>
</g>
</g>
</svg>
